<svg width="291" height="40" viewBox="0 0 291 40" fill="none" xmlns="http://www.w3.org/2000/svg">
<path d="M71.1228 27.9694L60.2492 14.3438V27.9694H58.6044V11.291H59.8716L70.9116 25.1726V11.3102H72.5564V27.9694H71.1228ZM82.822 28.0846C81.6615 28.0846 80.5991 27.8457 79.6348 27.3678C78.6706 26.89 77.845 26.2564 77.158 25.467C76.4668 24.6777 75.9335 23.7732 75.558 22.7534C75.1826 21.7337 74.9948 20.6926 74.9948 19.6302C74.9948 18.5166 75.1954 17.4521 75.5964 16.4366C75.9932 15.4169 76.5458 14.5145 77.254 13.7294C77.958 12.9486 78.7879 12.3278 79.7436 11.867C80.6994 11.402 81.7319 11.1694 82.8412 11.1694C84.0018 11.1694 85.0642 11.4169 86.0284 11.9118C86.9884 12.4068 87.8098 13.0532 88.4924 13.851C89.1751 14.6489 89.7042 15.5534 90.0796 16.5646C90.4551 17.5758 90.6428 18.6041 90.6428 19.6494C90.6428 20.763 90.4423 21.8297 90.0412 22.8494C89.6444 23.8649 89.0962 24.7609 88.3964 25.5374C87.701 26.314 86.8754 26.9326 85.9196 27.3934C84.9639 27.8542 83.9314 28.0846 82.822 28.0846ZM76.6396 19.6302C76.6396 20.539 76.789 21.4116 77.0876 22.2478C77.3863 23.0884 77.8087 23.8329 78.3548 24.4814C78.9052 25.13 79.5559 25.6462 80.3068 26.0302C81.0578 26.4142 81.8962 26.6062 82.822 26.6062C83.7607 26.6062 84.614 26.4036 85.382 25.9982C86.15 25.5886 86.7986 25.0553 87.3276 24.3982C87.861 23.7412 88.2727 22.9966 88.5628 22.1646C88.853 21.3369 88.998 20.4921 88.998 19.6302C88.998 18.7214 88.8444 17.8489 88.5372 17.0126C88.2343 16.1721 87.8076 15.4318 87.2572 14.7918C86.7111 14.1476 86.0626 13.6334 85.3116 13.2494C84.5564 12.8654 83.7266 12.6734 82.822 12.6734C81.8791 12.6734 81.0236 12.874 80.2556 13.275C79.4919 13.6718 78.8434 14.2009 78.31 14.8622C77.7767 15.5193 77.365 16.2617 77.0748 17.0894C76.7847 17.9214 76.6396 18.7684 76.6396 19.6302ZM94.7452 27.9694H93.1068V11.291H100.153C100.874 11.291 101.536 11.4425 102.137 11.7454C102.739 12.0526 103.259 12.4516 103.699 12.9422C104.138 13.4372 104.48 13.9982 104.723 14.6254C104.966 15.2526 105.088 15.8862 105.088 16.5262C105.088 17.1364 104.996 17.7209 104.812 18.2798C104.633 18.8345 104.384 19.3358 104.064 19.7838C103.744 20.2276 103.355 20.603 102.899 20.9102C102.447 21.2132 101.939 21.4201 101.376 21.531L105.459 27.9694H103.603L99.6796 21.8126H94.7452V27.9694ZM94.7452 12.7438V20.3598H100.198C100.684 20.3598 101.128 20.2532 101.529 20.0398C101.926 19.8308 102.265 19.5449 102.547 19.1822C102.828 18.8238 103.048 18.4164 103.206 17.9598C103.364 17.5076 103.443 17.0297 103.443 16.5262C103.443 16.027 103.351 15.547 103.168 15.0862C102.988 14.6212 102.747 14.2158 102.444 13.8702C102.137 13.5289 101.777 13.2558 101.363 13.051C100.949 12.8462 100.514 12.7438 100.057 12.7438H94.7452ZM119.385 11.291V12.7438H113.446V27.9694H111.801V12.7438H105.856V11.291H119.385ZM119.36 19.5086C119.36 18.5102 119.535 17.5118 119.884 16.5134C120.239 15.5193 120.753 14.6318 121.427 13.851C122.101 13.066 122.931 12.4281 123.916 11.9374C124.902 11.4425 126.022 11.195 127.276 11.195C128.765 11.195 130.037 11.5321 131.091 12.2062C132.149 12.8804 132.93 13.7572 133.433 14.8366L132.14 15.6366C131.872 15.0862 131.545 14.6233 131.161 14.2478C130.781 13.8724 130.372 13.5673 129.932 13.3326C129.493 13.098 129.039 12.9294 128.569 12.827C128.1 12.7246 127.637 12.6734 127.18 12.6734C126.178 12.6734 125.292 12.8782 124.524 13.2878C123.761 13.6932 123.116 14.2244 122.592 14.8814C122.067 15.5385 121.67 16.2788 121.401 17.1022C121.137 17.9257 121.004 18.7598 121.004 19.6046C121.004 20.5305 121.164 21.4158 121.484 22.2606C121.804 23.1054 122.244 23.8542 122.803 24.507C123.357 25.1556 124.015 25.6718 124.774 26.0558C125.534 26.4398 126.359 26.6318 127.251 26.6318C127.72 26.6318 128.202 26.5721 128.697 26.4526C129.192 26.3374 129.67 26.1497 130.131 25.8894C130.592 25.6334 131.018 25.3134 131.411 24.9294C131.803 24.5454 132.132 24.0782 132.396 23.5278L133.76 24.2318C133.495 24.859 133.12 25.4116 132.633 25.8894C132.147 26.3673 131.607 26.7705 131.014 27.099C130.417 27.4276 129.785 27.6793 129.12 27.8542C128.454 28.0249 127.801 28.1102 127.161 28.1102C126.018 28.1102 124.968 27.8606 124.012 27.3614C123.057 26.858 122.233 26.203 121.542 25.3966C120.855 24.5902 120.32 23.675 119.936 22.651C119.552 21.6228 119.36 20.5753 119.36 19.5086ZM137.587 26.5102H147.148V27.9694H135.942V11.291H146.937V12.7438H137.587V18.7598H145.734V20.1486H137.587V26.5102ZM160.883 27.9694H149.606V11.291H151.251V26.5102H160.883V27.9694Z" fill="#243859"/>
<path d="M179.225 27.9694H177.58V14.2734L171.494 24.8654H170.528L164.448 14.2734V27.9694H162.803V11.291H164.492L171.001 22.7086L177.555 11.291H179.225V27.9694ZM180.953 27.9694L187.936 11.291H189.318L196.249 27.9694H194.515L192.352 22.7534H184.857L182.72 27.9694H180.953ZM185.209 21.4606H191.974L188.614 13.2174L185.209 21.4606ZM199.654 27.9694H198.009V11.291H205.056C205.777 11.291 206.438 11.4425 207.04 11.7454C207.641 12.0526 208.162 12.4516 208.601 12.9422C209.041 13.4372 209.382 13.9982 209.625 14.6254C209.868 15.2526 209.99 15.8862 209.99 16.5262C209.99 17.1364 209.9 17.7209 209.721 18.2798C209.538 18.8345 209.286 19.3358 208.966 19.7838C208.646 20.2276 208.258 20.603 207.801 20.9102C207.349 21.2132 206.841 21.4201 206.278 21.531L210.368 27.9694H208.512L204.582 21.8126H199.654V27.9694ZM199.654 12.7438V20.3598H205.1C205.587 20.3598 206.031 20.2532 206.432 20.0398C206.828 19.8308 207.168 19.5449 207.449 19.1822C207.731 18.8238 207.951 18.4164 208.108 17.9598C208.266 17.5076 208.345 17.0297 208.345 16.5262C208.345 16.027 208.256 15.547 208.076 15.0862C207.893 14.6212 207.65 14.2158 207.347 13.8702C207.04 13.5289 206.679 13.2558 206.265 13.051C205.851 12.8462 205.416 12.7438 204.96 12.7438H199.654ZM214.355 27.9694H212.71V11.3102H214.355V20.9934L223.539 11.291H225.35L218.534 18.619L225.702 27.9694H223.891L217.504 19.579L214.355 22.8494V27.9694ZM228.819 26.5102H238.38V27.9694H227.174V11.291H238.169V12.7438H228.819V18.7598H236.972V20.1486H228.819V26.5102ZM252.684 11.291V12.7438H246.739V27.9694H245.094V12.7438H239.148V11.291H252.684ZM256.179 27.9694H254.534V11.291H256.179V27.9694ZM272.243 27.9694L261.363 14.3438V27.9694H259.718V11.291H260.992L272.032 25.1726V11.3102H273.676V27.9694H272.243ZM289.267 27.9694V25.5246C287.718 27.2313 285.935 28.0846 283.916 28.0846C282.786 28.0846 281.747 27.8436 280.8 27.3614C279.852 26.875 279.031 26.2329 278.336 25.435C277.636 24.6329 277.092 23.7284 276.704 22.7214C276.311 21.7102 276.115 20.6713 276.115 19.6046C276.115 18.4953 276.307 17.4308 276.691 16.411C277.075 15.3913 277.61 14.4953 278.297 13.723C278.988 12.9465 279.803 12.3278 280.742 11.867C281.681 11.402 282.707 11.1694 283.82 11.1694C284.635 11.1694 285.38 11.2612 286.054 11.4446C286.724 11.6238 287.321 11.8734 287.846 12.1934C288.371 12.5134 288.825 12.8974 289.209 13.3454C289.593 13.7892 289.92 14.2777 290.188 14.811L288.915 15.6558C288.369 14.6233 287.656 13.8638 286.777 13.3774C285.903 12.8953 284.908 12.6542 283.795 12.6542C282.873 12.6542 282.039 12.8484 281.292 13.2366C280.55 13.6292 279.916 14.1497 279.392 14.7982C278.867 15.451 278.464 16.1956 278.182 17.0318C277.9 17.8724 277.76 18.7385 277.76 19.6302C277.76 20.5689 277.92 21.4606 278.24 22.3054C278.56 23.1545 279.001 23.8948 279.564 24.5262C280.132 25.162 280.795 25.6676 281.555 26.043C282.314 26.4185 283.14 26.6062 284.032 26.6062C284.987 26.6062 285.9 26.3822 286.771 25.9342C287.637 25.4905 288.469 24.7822 289.267 23.8094V21.0382H285.555V19.771H290.656V27.9694H289.267Z" fill="#C89B26"/>
<g clip-path="url(#clip0_131_38)">
<path d="M17.6527 4.68823C21.7804 4.80272 25.2719 6.08145 27.6667 8.91545C28.5344 9.94231 28.9439 11.1048 29.4228 12.2479C31.1196 16.2861 32.8094 20.326 34.4923 24.3677C34.527 24.4487 34.5687 24.528 34.6057 24.6072C34.763 24.9472 35.0338 25.1744 35.5474 25.1356C35.783 25.1369 36.0109 25.072 36.1876 24.9534C36.3643 24.8348 36.4774 24.6708 36.5053 24.4928C36.6326 23.864 36.7251 23.2316 36.8107 22.5976C37.1555 20.0788 37.484 17.5601 37.8288 15.0414C38.2707 11.79 38.7242 8.54205 39.1592 5.29061C39.1939 5.01936 39.3189 4.93834 39.6752 4.93834C40.6007 4.95596 41.5262 4.963 42.4633 4.93834C42.9122 4.92601 42.9932 5.04578 42.9469 5.35578L42.2527 10.2523C41.8478 13.2202 41.4568 16.1916 41.0426 19.1594C40.7858 21.0123 40.5961 22.8741 40.2074 24.7112C39.7076 27.0555 36.3757 28.5509 33.509 27.79C32.8977 27.6313 32.3457 27.3627 31.8999 27.007C31.454 26.6513 31.1273 26.2191 30.9476 25.7468C29.4599 22.2083 27.9976 18.6645 26.5029 15.1242C25.9892 13.8912 25.5588 12.6477 24.9249 11.4588C23.6014 8.98238 20.3737 7.48348 16.8128 7.58388C11.7456 7.73711 7.37716 10.5623 6.52337 14.3756C6.11846 16.1845 5.97964 18.0286 5.72512 19.8569C5.31173 22.8535 4.89833 25.8478 4.48494 28.8397C4.25356 30.5289 4.02218 32.2162 3.82319 33.9071C3.78155 34.2594 3.61958 34.3616 3.16608 34.3457C2.3123 34.3175 1.45389 34.3158 0.602415 34.3457C0.104952 34.3633 -0.0477569 34.2647 0.0124013 33.8737C0.262289 32.2585 0.475157 30.6398 0.706535 29.0212C1.11067 25.9975 1.51636 22.9721 1.92358 19.945C2.16884 18.1431 2.37246 16.3377 2.69407 14.5517C3.17765 11.8657 4.82043 9.61999 7.40492 7.78995C10.2324 5.79788 13.5735 4.73227 17.6527 4.68823Z" fill="#243859"/>
<path d="M34.1383 34.5834C32.3677 34.6043 30.6139 34.3195 29.0087 33.7503C25.8457 32.6477 23.8188 30.7912 22.7614 28.2901C21.293 24.805 19.8276 21.3175 18.3653 17.8277C17.9719 16.8678 17.5855 15.9079 17.1876 14.9515C17.1505 14.8581 17.0996 14.7665 17.0534 14.6732C16.8798 14.3385 16.5906 14.1183 16.0862 14.1571C15.862 14.1701 15.6496 14.2392 15.4823 14.3535C15.3149 14.4679 15.2018 14.6211 15.1607 14.7894C14.9501 15.4094 14.9501 16.0505 14.8599 16.6829C14.418 19.7758 14.0038 22.8722 13.585 25.9687C13.2495 28.4451 12.914 30.9215 12.597 33.398C12.4721 34.3685 12.4952 34.3702 11.2088 34.3667C10.5378 34.3667 9.86907 34.3579 9.20039 34.3667C8.80242 34.3667 8.69367 34.2505 8.73764 33.9546C9.08316 31.4793 9.42406 29.004 9.76033 26.5288C10.1629 23.5732 10.5516 20.6177 10.9519 17.6639C11.0792 16.7216 11.1833 15.7758 11.3638 14.8458C11.7432 12.8766 14.02 11.346 16.5328 11.3231C17.4791 11.3004 18.4082 11.5192 19.1724 11.9446C19.9367 12.37 20.4922 12.9776 20.7508 13.671C21.2012 14.77 21.657 15.8674 22.1182 16.9629C23.5651 20.4093 25.012 23.8562 26.4589 27.3037C27.0899 28.7555 28.375 29.9906 30.0869 30.7907C31.7988 31.5907 33.8273 31.9041 35.8135 31.6754C41.0773 31.0431 44.7562 28.0277 45.3 23.9255C45.7056 20.8431 46.1167 17.7608 46.5332 14.6785C46.9474 11.626 47.3824 8.5754 47.785 5.51947C47.8405 5.09675 48.0163 4.93471 48.6064 4.96465C49.4047 4.999 50.205 4.999 51.0034 4.96465C51.5287 4.94352 51.6397 5.10732 51.5888 5.46487C51.3297 7.25087 51.0867 9.03687 50.8415 10.8246C50.4875 13.4138 50.1473 16.003 49.7725 18.5904C49.4301 20.9083 49.4046 23.2703 48.7012 25.5389C47.313 30.0039 43.5554 32.8555 37.845 34.2258C36.6452 34.505 35.3916 34.6259 34.1383 34.5834Z" fill="#C89B26"/>
</g>
<defs>
<clipPath id="clip0_131_38">
<rect width="51.6" height="39.28" fill="white"/>
</clipPath>
</defs>
</svg>
