<svg width="340" height="250" viewBox="0 0 340 250" fill="none" xmlns="http://www.w3.org/2000/svg">
<g clip-path="url(#clip0_131_2)">
<path d="M340 0H0V250H340V0Z" fill="white"/>
<path d="M95.7928 133.33L84.9192 119.704V133.33H83.2744V116.651H84.5416L95.5816 130.533V116.67H97.2264V133.33H95.7928ZM107.492 133.445C106.331 133.445 105.269 133.206 104.305 132.728C103.341 132.25 102.515 131.616 101.828 130.827C101.137 130.038 100.603 129.133 100.228 128.114C99.8525 127.094 99.6648 126.053 99.6648 124.99C99.6648 123.877 99.8653 122.812 100.266 121.797C100.663 120.777 101.216 119.875 101.924 119.09C102.628 118.309 103.458 117.688 104.414 117.227C105.369 116.762 106.402 116.53 107.511 116.53C108.672 116.53 109.734 116.777 110.698 117.272C111.658 117.767 112.48 118.413 113.162 119.211C113.845 120.009 114.374 120.914 114.75 121.925C115.125 122.936 115.313 123.964 115.313 125.01C115.313 126.123 115.112 127.19 114.711 128.21C114.314 129.225 113.766 130.121 113.066 130.898C112.371 131.674 111.545 132.293 110.59 132.754C109.634 133.214 108.601 133.445 107.492 133.445ZM101.31 124.99C101.31 125.899 101.459 126.772 101.758 127.608C102.056 128.448 102.479 129.193 103.025 129.842C103.575 130.49 104.226 131.006 104.977 131.39C105.728 131.774 106.566 131.966 107.492 131.966C108.431 131.966 109.284 131.764 110.052 131.358C110.82 130.949 111.469 130.415 111.998 129.758C112.531 129.101 112.943 128.357 113.233 127.525C113.523 126.697 113.668 125.852 113.668 124.99C113.668 124.082 113.514 123.209 113.207 122.373C112.904 121.532 112.478 120.792 111.927 120.152C111.381 119.508 110.733 118.994 109.982 118.61C109.226 118.226 108.397 118.034 107.492 118.034C106.549 118.034 105.694 118.234 104.926 118.635C104.162 119.032 103.513 119.561 102.98 120.222C102.447 120.879 102.035 121.622 101.745 122.45C101.455 123.282 101.31 124.128 101.31 124.99ZM119.415 133.33H117.777V116.651H124.823C125.544 116.651 126.206 116.803 126.807 117.106C127.409 117.413 127.929 117.812 128.369 118.302C128.808 118.797 129.15 119.358 129.393 119.986C129.636 120.613 129.758 121.246 129.758 121.886C129.758 122.496 129.666 123.081 129.482 123.64C129.303 124.195 129.054 124.696 128.734 125.144C128.414 125.588 128.025 125.963 127.569 126.27C127.117 126.573 126.609 126.78 126.046 126.891L130.129 133.33H128.273L124.35 127.173H119.415V133.33ZM119.415 118.104V125.72H124.868C125.354 125.72 125.798 125.613 126.199 125.4C126.596 125.191 126.935 124.905 127.217 124.542C127.498 124.184 127.718 123.776 127.876 123.32C128.034 122.868 128.113 122.39 128.113 121.886C128.113 121.387 128.021 120.907 127.838 120.446C127.658 119.981 127.417 119.576 127.114 119.23C126.807 118.889 126.447 118.616 126.033 118.411C125.619 118.206 125.184 118.104 124.727 118.104H119.415ZM144.055 116.651V118.104H138.116V133.33H136.471V118.104H130.526V116.651H144.055ZM144.03 124.869C144.03 123.87 144.205 122.872 144.554 121.874C144.909 120.879 145.423 119.992 146.097 119.211C146.771 118.426 147.601 117.788 148.586 117.298C149.572 116.803 150.692 116.555 151.946 116.555C153.435 116.555 154.707 116.892 155.761 117.566C156.819 118.24 157.6 119.117 158.103 120.197L156.81 120.997C156.542 120.446 156.215 119.983 155.831 119.608C155.451 119.232 155.042 118.927 154.602 118.693C154.163 118.458 153.709 118.29 153.239 118.187C152.77 118.085 152.307 118.034 151.85 118.034C150.848 118.034 149.962 118.238 149.194 118.648C148.431 119.053 147.786 119.584 147.262 120.242C146.737 120.899 146.34 121.639 146.071 122.462C145.807 123.286 145.674 124.12 145.674 124.965C145.674 125.891 145.834 126.776 146.154 127.621C146.474 128.466 146.914 129.214 147.473 129.867C148.027 130.516 148.685 131.032 149.444 131.416C150.203 131.8 151.029 131.992 151.921 131.992C152.39 131.992 152.872 131.932 153.367 131.813C153.862 131.698 154.34 131.51 154.801 131.25C155.262 130.994 155.688 130.674 156.081 130.29C156.473 129.906 156.802 129.438 157.066 128.888L158.43 129.592C158.165 130.219 157.79 130.772 157.303 131.25C156.817 131.727 156.277 132.131 155.684 132.459C155.087 132.788 154.455 133.039 153.79 133.214C153.124 133.385 152.471 133.47 151.831 133.47C150.688 133.47 149.638 133.221 148.682 132.722C147.727 132.218 146.903 131.563 146.212 130.757C145.525 129.95 144.99 129.035 144.606 128.011C144.222 126.983 144.03 125.935 144.03 124.869ZM162.257 131.87H171.818V133.33H160.612V116.651H171.607V118.104H162.257V124.12H170.404V125.509H162.257V131.87ZM185.553 133.33H174.276V116.651H175.921V131.87H185.553V133.33Z" fill="#243859"/>
<path d="M203.895 133.33H202.25V119.634L196.164 130.226H195.198L189.118 119.634V133.33H187.473V116.651H189.162L195.671 128.069L202.225 116.651H203.895V133.33ZM205.623 133.33L212.606 116.651H213.988L220.919 133.33H219.185L217.022 128.114H209.527L207.39 133.33H205.623ZM209.879 126.821H216.644L213.284 118.578L209.879 126.821ZM224.324 133.33H222.679V116.651H229.726C230.447 116.651 231.108 116.803 231.71 117.106C232.311 117.413 232.832 117.812 233.271 118.302C233.711 118.797 234.052 119.358 234.295 119.986C234.538 120.613 234.66 121.246 234.66 121.886C234.66 122.496 234.57 123.081 234.391 123.64C234.208 124.195 233.956 124.696 233.636 125.144C233.316 125.588 232.928 125.963 232.471 126.27C232.019 126.573 231.511 126.78 230.948 126.891L235.038 133.33H233.182L229.252 127.173H224.324V133.33ZM224.324 118.104V125.72H229.77C230.257 125.72 230.701 125.613 231.102 125.4C231.498 125.191 231.838 124.905 232.119 124.542C232.401 124.184 232.621 123.776 232.778 123.32C232.936 122.868 233.015 122.39 233.015 121.886C233.015 121.387 232.926 120.907 232.746 120.446C232.563 119.981 232.32 119.576 232.017 119.23C231.71 118.889 231.349 118.616 230.935 118.411C230.521 118.206 230.086 118.104 229.63 118.104H224.324ZM239.025 133.33H237.38V116.67H239.025V126.354L248.209 116.651H250.02L243.204 123.979L250.372 133.33H248.561L242.174 124.939L239.025 128.21V133.33ZM253.489 131.87H263.05V133.33H251.844V116.651H262.839V118.104H253.489V124.12H261.642V125.509H253.489V131.87ZM277.354 116.651V118.104H271.409V133.33H269.764V118.104H263.818V116.651H277.354ZM280.849 133.33H279.204V116.651H280.849V133.33ZM296.913 133.33L286.033 119.704V133.33H284.388V116.651H285.662L296.702 130.533V116.67H298.346V133.33H296.913ZM313.937 133.33V130.885C312.388 132.591 310.605 133.445 308.586 133.445C307.456 133.445 306.417 133.204 305.47 132.722C304.522 132.235 303.701 131.593 303.006 130.795C302.306 129.993 301.762 129.088 301.374 128.082C300.981 127.07 300.785 126.031 300.785 124.965C300.785 123.855 300.977 122.791 301.361 121.771C301.745 120.751 302.28 119.855 302.967 119.083C303.658 118.307 304.473 117.688 305.412 117.227C306.351 116.762 307.377 116.53 308.49 116.53C309.305 116.53 310.05 116.621 310.724 116.805C311.394 116.984 311.991 117.234 312.516 117.554C313.041 117.874 313.495 118.258 313.879 118.706C314.263 119.149 314.59 119.638 314.858 120.171L313.585 121.016C313.039 119.983 312.326 119.224 311.447 118.738C310.573 118.255 309.578 118.014 308.465 118.014C307.543 118.014 306.709 118.208 305.962 118.597C305.22 118.989 304.586 119.51 304.062 120.158C303.537 120.811 303.134 121.556 302.852 122.392C302.57 123.232 302.43 124.099 302.43 124.99C302.43 125.929 302.59 126.821 302.91 127.666C303.23 128.515 303.671 129.255 304.234 129.886C304.802 130.522 305.465 131.028 306.225 131.403C306.984 131.779 307.81 131.966 308.702 131.966C309.657 131.966 310.57 131.742 311.441 131.294C312.307 130.851 313.139 130.142 313.937 129.17V126.398H310.225V125.131H315.326V133.33H313.937Z" fill="#C89B26"/>
<g clip-path="url(#clip1_131_2)">
<path d="M42.3226 110.048C46.4504 110.163 49.9419 111.442 52.3367 114.276C53.2043 115.302 53.6139 116.465 54.0928 117.608C55.7896 121.646 57.4794 125.686 59.1623 129.728C59.197 129.809 59.2387 129.888 59.2757 129.967C59.433 130.307 59.7037 130.535 60.2174 130.496C60.453 130.497 60.6809 130.432 60.8576 130.314C61.0343 130.195 61.1474 130.031 61.1753 129.853C61.3026 129.224 61.3951 128.592 61.4807 127.958C61.8255 125.439 62.154 122.92 62.4988 120.402C62.9407 117.15 63.3942 113.902 63.8292 110.651C63.8639 110.379 63.9889 110.298 64.3452 110.298C65.2707 110.316 66.1962 110.323 67.1333 110.298C67.5822 110.286 67.6631 110.406 67.6169 110.716L66.9227 115.612C66.5178 118.58 66.1268 121.552 65.7126 124.52C65.4558 126.372 65.2661 128.234 64.8773 130.071C64.3776 132.416 61.0457 133.911 58.179 133.15C57.5677 132.991 57.0157 132.723 56.5698 132.367C56.124 132.011 55.7973 131.579 55.6176 131.107C54.1298 127.568 52.6675 124.025 51.1728 120.484C50.6592 119.251 50.2288 118.008 49.5948 116.819C48.2714 114.342 45.0436 112.844 41.4827 112.944C36.4156 113.097 32.0471 115.922 31.1934 119.736C30.7884 121.545 30.6496 123.389 30.3951 125.217C29.9817 128.214 29.5683 131.208 29.1549 134.2C28.9235 135.889 28.6922 137.576 28.4932 139.267C28.4515 139.62 28.2896 139.722 27.8361 139.706C26.9823 139.678 26.1239 139.676 25.2724 139.706C24.7749 139.723 24.6222 139.625 24.6824 139.234C24.9323 137.619 25.1451 136 25.3765 134.381C25.7807 131.358 26.1863 128.332 26.5936 125.305C26.8388 123.503 27.0424 121.698 27.3641 119.912C27.8476 117.226 29.4904 114.98 32.0749 113.15C34.9023 111.158 38.2434 110.092 42.3226 110.048Z" fill="#243859"/>
<path d="M58.8083 139.943C57.0377 139.964 55.2838 139.68 53.6786 139.11C50.5157 138.008 48.4888 136.151 47.4314 133.65C45.963 130.165 44.4976 126.678 43.0353 123.188C42.6419 122.228 42.2555 121.268 41.8575 120.312C41.8205 120.218 41.7696 120.127 41.7233 120.033C41.5498 119.699 41.2606 119.478 40.7562 119.517C40.5319 119.53 40.3196 119.599 40.1523 119.714C39.9849 119.828 39.8718 119.981 39.8307 120.15C39.6201 120.77 39.6201 121.411 39.5299 122.043C39.0879 125.136 38.6738 128.232 38.255 131.329C37.9195 133.805 37.584 136.282 37.267 138.758C37.1421 139.729 37.1652 139.73 35.8787 139.727C35.2077 139.727 34.5391 139.718 33.8704 139.727C33.4724 139.727 33.3637 139.611 33.4076 139.315C33.7531 136.839 34.094 134.364 34.4303 131.889C34.8329 128.933 35.2216 125.978 35.6219 123.024C35.7492 122.082 35.8533 121.136 36.0338 120.206C36.4132 118.237 38.69 116.706 41.2027 116.683C42.149 116.661 43.0782 116.879 43.8424 117.305C44.6067 117.73 45.1622 118.338 45.4208 119.031C45.8712 120.13 46.327 121.227 46.7882 122.323C48.2351 125.769 49.682 129.216 51.1288 132.664C51.7598 134.116 53.0449 135.351 54.7569 136.151C56.4688 136.951 58.4973 137.264 60.4835 137.036C65.7473 136.403 69.4262 133.388 69.9699 129.286C70.3756 126.203 70.7867 123.121 71.2032 120.039C71.6174 116.986 72.0523 113.936 72.4549 110.88C72.5105 110.457 72.6863 110.295 73.2763 110.325C74.0747 110.359 74.875 110.359 75.6734 110.325C76.1986 110.304 76.3097 110.467 76.2588 110.825C75.9997 112.611 75.7567 114.397 75.5114 116.185C75.1574 118.774 74.8173 121.363 74.4425 123.95C74.1 126.268 74.0746 128.63 73.3712 130.899C71.9829 135.364 68.2254 138.216 62.515 139.586C61.3152 139.865 60.0616 139.986 58.8083 139.943Z" fill="#C89B26"/>
</g>
</g>
<defs>
<clipPath id="clip0_131_2">
<rect width="340" height="250" fill="white"/>
</clipPath>
<clipPath id="clip1_131_2">
<rect width="51.6" height="39.28" fill="white" transform="translate(24.67 105.36)"/>
</clipPath>
</defs>
</svg>
